<svg width="87" height="25" viewBox="0 0 87 25" fill="none" xmlns="http://www.w3.org/2000/svg">
<path d="M34.4254 7.06903V9.26103H31.4494V18.301H28.7134V9.26103H25.7374V7.06903H34.4254ZM44.6145 9.37302V18.301H41.8785V17.085C41.6012 17.4797 41.2225 17.7997 40.7425 18.045C40.2732 18.2797 39.7505 18.397 39.1745 18.397C38.4919 18.397 37.8892 18.2477 37.3665 17.949C36.8439 17.6397 36.4385 17.197 36.1505 16.621C35.8625 16.045 35.7185 15.3677 35.7185 14.589V9.37302H38.4385V14.221C38.4385 14.8184 38.5932 15.2824 38.9025 15.613C39.2119 15.9437 39.6279 16.109 40.1505 16.109C40.6839 16.109 41.1052 15.9437 41.4145 15.613C41.7239 15.2824 41.8785 14.8184 41.8785 14.221V9.37302H44.6145ZM51.5558 15.981V18.301H50.1638C49.1718 18.301 48.3984 18.061 47.8438 17.581C47.2891 17.0904 47.0118 16.2957 47.0118 15.197V11.645H45.9238V9.37302H47.0118V7.19703H49.7478V9.37302H51.5398V11.645H49.7478V15.229C49.7478 15.4957 49.8118 15.6877 49.9398 15.805C50.0678 15.9224 50.2811 15.981 50.5798 15.981H51.5558ZM57.1438 18.429C56.2691 18.429 55.4798 18.2424 54.7758 17.869C54.0824 17.4957 53.5331 16.9624 53.1278 16.269C52.7331 15.5757 52.5358 14.765 52.5358 13.837C52.5358 12.9197 52.7384 12.1144 53.1438 11.421C53.5491 10.717 54.1038 10.1784 54.8078 9.80503C55.5118 9.43169 56.3011 9.24502 57.1758 9.24502C58.0504 9.24502 58.8398 9.43169 59.5438 9.80503C60.2478 10.1784 60.8024 10.717 61.2078 11.421C61.6131 12.1144 61.8158 12.9197 61.8158 13.837C61.8158 14.7544 61.6078 15.565 61.1918 16.269C60.7864 16.9624 60.2264 17.4957 59.5118 17.869C58.8078 18.2424 58.0184 18.429 57.1438 18.429ZM57.1438 16.061C57.6664 16.061 58.1091 15.869 58.4718 15.485C58.8451 15.101 59.0318 14.5517 59.0318 13.837C59.0318 13.1224 58.8504 12.573 58.4878 12.189C58.1358 11.805 57.6984 11.613 57.1758 11.613C56.6424 11.613 56.1998 11.805 55.8478 12.189C55.4958 12.5624 55.3198 13.1117 55.3198 13.837C55.3198 14.5517 55.4904 15.101 55.8318 15.485C56.1838 15.869 56.6211 16.061 57.1438 16.061ZM66.0033 10.861C66.3233 10.3704 66.7233 9.98636 67.2033 9.70903C67.6833 9.42103 68.2166 9.27703 68.8033 9.27703V12.173H68.0513C67.3686 12.173 66.8566 12.3224 66.5153 12.621C66.1739 12.909 66.0033 13.421 66.0033 14.157V18.301H63.2673V9.37302H66.0033V10.861ZM74.127 15.741L76.063 9.37302H78.975L75.807 18.301H72.431L69.263 9.37302H72.191L74.127 15.741ZM81.5026 8.44502C81.0226 8.44502 80.628 8.30636 80.3186 8.02903C80.02 7.74102 79.8706 7.38903 79.8706 6.97303C79.8706 6.54636 80.02 6.19436 80.3186 5.91702C80.628 5.62902 81.0226 5.48502 81.5026 5.48502C81.972 5.48502 82.356 5.62902 82.6546 5.91702C82.964 6.19436 83.1186 6.54636 83.1186 6.97303C83.1186 7.38903 82.964 7.74102 82.6546 8.02903C82.356 8.30636 81.972 8.44502 81.5026 8.44502ZM82.8626 9.37302V18.301H80.1266V9.37302H82.8626Z" fill="#13668A"/>
<path d="M16.6052 6.16597C16.6051 7.43155 16.1022 8.64525 15.2073 9.54009C14.3123 10.4349 13.0985 10.9376 11.8329 10.9375C10.5674 10.9374 9.35365 10.4346 8.45881 9.53961C7.56397 8.64464 7.06131 7.43086 7.0614 6.16528C7.06149 4.8997 7.56433 3.68599 8.45929 2.79116C9.35426 1.89632 10.568 1.39366 11.8336 1.39375C13.0992 1.39384 14.3129 1.89668 15.2077 2.79164C16.1026 3.6866 16.6052 4.90038 16.6052 6.16597" fill="#021F31"/>
<path d="M23.421 8.21089C23.421 9.2956 22.9901 10.3359 22.2231 11.1029C21.4561 11.8699 20.4158 12.3008 19.3311 12.3008C18.2464 12.3008 17.2061 11.8699 16.4391 11.1029C15.6721 10.3359 15.2412 9.2956 15.2412 8.21089C15.2412 7.12619 15.6721 6.08591 16.4391 5.31891C17.2061 4.55191 18.2464 4.12101 19.3311 4.12101C20.4158 4.12101 21.4561 4.55191 22.2231 5.31891C22.9901 6.08591 23.421 7.12619 23.421 8.21089" fill="#021F31"/>
<path d="M15.2418 6.16598C15.2418 7.06999 14.8825 7.93694 14.2433 8.57611C13.604 9.21528 12.7369 9.57431 11.8329 9.57422C10.9289 9.57413 10.062 9.21492 9.42279 8.57563C8.78362 7.93633 8.42459 7.06931 8.42468 6.1653C8.42477 5.26129 8.78398 4.39434 9.42327 3.75517C9.73982 3.43868 10.1156 3.18765 10.5292 3.01639C10.9427 2.84514 11.386 2.75701 11.8336 2.75706C12.2812 2.7571 12.7245 2.84531 13.138 3.01665C13.5515 3.18799 13.9272 3.4391 14.2437 3.75565C14.5602 4.0722 14.8113 4.44798 14.9825 4.86155C15.1538 5.27511 15.2419 5.71836 15.2418 6.16598" fill="#13668A"/>
<path d="M13.1969 6.166C13.1969 6.91854 12.5153 7.5293 11.8336 7.5293C11.152 7.5293 10.4703 6.91854 10.4703 6.166C10.4703 5.80443 10.614 5.45767 10.8696 5.20201C11.1253 4.94634 11.4721 4.80271 11.8336 4.80271C12.1952 4.80271 12.542 4.94634 12.7976 5.20201C13.0533 5.45767 13.1969 5.80443 13.1969 6.166Z" fill="#021F31"/>
<path d="M20.695 18.4358C20.695 19.1589 20.4077 19.8524 19.8964 20.3638C19.385 20.8751 18.6915 21.1624 17.9684 21.1624H9.10696C8.38383 21.1624 7.69031 20.8751 7.17897 20.3638C6.66764 19.8524 6.38037 19.1589 6.38037 18.4358V12.9826C6.38037 12.2594 6.66764 11.5659 7.17897 11.0546C7.69031 10.5433 8.38383 10.256 9.10696 10.256H17.9684C18.6915 10.256 19.385 10.5433 19.8964 11.0546C20.4077 11.5659 20.695 12.2594 20.695 12.9826V18.4358Z" fill="#021F31"/>
<path d="M15.9235 10.9375H13.8785V8.89256H15.9235V10.9375Z" fill="#021F31"/>
<path d="M22.0577 8.21091C22.0577 8.93405 21.7704 9.62756 21.2591 10.1389C20.7477 10.6502 20.0542 10.9375 19.3311 10.9375C18.6079 10.9375 17.9144 10.6502 17.4031 10.1389C16.8918 9.62756 16.6045 8.93405 16.6045 8.21091C16.6045 7.48777 16.8918 6.79425 17.4031 6.28292C17.9144 5.77158 18.6079 5.48432 19.3311 5.48432C20.0542 5.48432 20.7477 5.77158 21.2591 6.28292C21.7704 6.79425 22.0577 7.48777 22.0577 8.21091Z" fill="#13668A"/>
<path d="M20.6943 8.21092C20.6943 8.39 20.659 8.56731 20.5904 8.73274C20.5218 8.89817 20.4213 9.04847 20.2947 9.17506C20.168 9.30165 20.0177 9.40206 19.8522 9.47055C19.6867 9.53904 19.5094 9.57426 19.3303 9.57422C19.1513 9.57417 18.9739 9.53886 18.8085 9.47029C18.6431 9.40172 18.4928 9.30123 18.3662 9.17458C18.2396 9.04792 18.1392 8.89757 18.0707 8.73211C18.0022 8.56665 17.967 8.38932 17.967 8.21024C17.9671 7.84858 18.1109 7.50177 18.3667 7.2461C18.6225 6.99044 18.9694 6.84686 19.331 6.84695C19.6927 6.84704 20.0395 6.99079 20.2952 7.24659C20.5508 7.50238 20.6944 7.84926 20.6943 8.21092" fill="#021F31"/>
<path d="M7.06208 12.9824H5.69878L1.60889 10.2558H0.927246V19.7988H1.60889L5.69878 17.0722H7.06208C7.60443 17.0722 8.12457 16.8568 8.50807 16.4733C8.89157 16.0898 9.10702 15.5696 9.10702 15.0273C9.10702 14.4849 8.89157 13.9648 8.50807 13.5813C8.12457 13.1978 7.60443 12.9824 7.06208 12.9824" fill="#021F31"/>
<path d="M22.0584 12.9824V13.664H18.6502C18.2886 13.664 17.9418 13.8077 17.6862 14.0633C17.4305 14.319 17.2869 14.6658 17.2869 15.0273C17.2869 15.3889 17.4305 15.7357 17.6862 15.9913C17.9418 16.247 18.2886 16.3906 18.6502 16.3906H22.0584V17.0723H24.1033V12.9824H22.0584Z" fill="#021F31"/>
<path d="M18.6501 19.1174H11.8336V12.301H18.6501V19.1174Z" fill="#AAAAAA"/>
<path d="M17.2868 17.7542H13.1969V13.6643H17.2868V17.7542Z" fill="#021F31"/>
<path d="M10.4697 17.7541C10.4697 17.9332 10.4343 18.1105 10.3658 18.276C10.2972 18.4414 10.1967 18.5917 10.0701 18.7183C9.94341 18.8449 9.79306 18.9453 9.62759 19.0138C9.46213 19.0822 9.2848 19.1175 9.10573 19.1174C8.92665 19.1174 8.74934 19.0821 8.58391 19.0135C8.41849 18.9449 8.26818 18.8444 8.14159 18.7178C8.015 18.5911 7.91459 18.4408 7.8461 18.2753C7.77761 18.1099 7.74239 17.9325 7.74243 17.7535C7.74252 17.3918 7.88628 17.045 8.14207 16.7893C8.39787 16.5337 8.74475 16.3901 9.10641 16.3902C9.46807 16.3902 9.81488 16.534 10.0705 16.7898C10.3262 17.0456 10.4698 17.3925 10.4697 17.7541" fill="#AAAAAA"/>
<path d="M78.2098 2.48438C86.1447 2.77878 85.0444 6.41636 85.1014 7.85313" stroke="#DBDBDB" stroke-width="0.5"/>
<path d="M34.1797 21.3521C26.2462 21.6811 27.0577 17.9684 26.8881 16.5406" stroke="#DBDBDB" stroke-width="0.5"/>
</svg>
